<?xml version="1.0" encoding="UTF-8"?>
<svg version="1.1" xmlns="http://www.w3.org/2000/svg" width="500" height="500">
<path d="M0 0 C165 0 330 0 500 0 C500 165 500 330 500 500 C335 500 170 500 0 500 C0 335 0 170 0 0 Z " fill="#FDFDFD" transform="translate(0,0)"/>
<path d="M0 0 C1.64270874 0.00918457 1.64270874 0.00918457 3.31860352 0.01855469 C12.38040828 0.19190979 20.29670384 1.50708914 28.875 4.4375 C29.80054688 4.73785156 30.72609375 5.03820312 31.6796875 5.34765625 C45.61511354 10.36180487 58.74835549 20.34130455 65.875 33.4375 C67.00987366 36.84212099 67.00509158 39.43704661 67.01201439 43.02845192 C67.01599213 44.04262388 67.01599213 44.04262388 67.02005023 45.07728416 C67.02775387 47.35928606 67.02830281 49.64123424 67.02890015 51.92324829 C67.03291407 53.56934443 67.03735218 55.21543957 67.0421797 56.86153352 C67.0541589 61.39800877 67.05979677 65.93447337 67.06436086 70.47096133 C67.07031185 75.35865907 67.08192295 80.24634406 67.09265137 85.1340332 C67.11718691 96.94456677 67.13180422 108.75510456 67.14471143 120.56565577 C67.14842253 123.90060759 67.15239583 127.23555899 67.1564641 130.57051039 C67.18169977 151.27305468 67.20375636 171.97559962 67.21619225 192.6781559 C67.21912202 197.47472766 67.22208367 202.27129939 67.22509766 207.06787109 C67.22584371 208.2600597 67.22658976 209.45224831 67.22735842 210.68056385 C67.24001392 229.9963191 67.27323893 249.31198234 67.31489949 268.62769456 C67.35730627 288.45164116 67.38088583 308.27554064 67.38611281 328.09953249 C67.38952835 339.2328365 67.40130043 350.36599673 67.43421555 361.49925613 C67.46219991 370.9803637 67.47322244 380.46129802 67.46202008 389.94244368 C67.45682933 394.78005452 67.45974736 399.61730244 67.48448563 404.45486069 C67.50695302 408.88532885 67.50625786 413.31517285 67.48728175 417.74565177 C67.48447822 419.34666231 67.4901 420.94771495 67.50509469 422.54865773 C67.58165822 431.25704654 67.32535529 438.2740096 61.875 445.4375 C60.94107422 446.72527344 60.94107422 446.72527344 59.98828125 448.0390625 C47.99676507 461.51326072 29.92577065 470.79836051 11.875 472.4375 C8.18722921 472.62480377 4.50459292 472.7069722 0.8125 472.75 C-0.10958252 472.76772461 -1.03166504 472.78544922 -1.98168945 472.80371094 C-15.89229159 472.78884256 -26.78594241 467.26470514 -36.83984375 457.89453125 C-40.34710695 454.1234739 -42.67012195 449.93224807 -45.125 445.4375 C-46.1229407 443.77768603 -47.14328115 442.13109627 -48.1875 440.5 C-48.63222656 439.78972656 -49.07695313 439.07945312 -49.53515625 438.34765625 C-52.67442615 434.57590446 -56.7203736 433.07857286 -61.37109375 431.89453125 C-62.3667334 431.62979004 -63.36237305 431.36504883 -64.38818359 431.09228516 C-65.43570801 430.81433105 -66.48323242 430.53637695 -67.5625 430.25 C-84.82399529 425.41822904 -99.43040066 417.57887276 -109.58984375 402.18359375 C-115.22552065 392.10247196 -117.31088569 382.29106696 -117.25 370.875 C-117.25386719 370.14603516 -117.25773437 369.41707031 -117.26171875 368.66601562 C-117.25416322 364.4689188 -116.87383351 360.57877625 -116.125 356.4375 C-115.94333073 354.42097114 -115.81788708 352.39855719 -115.75 350.375 C-115.70101562 349.37339844 -115.65203125 348.37179687 -115.6015625 347.33984375 C-116.33424722 343.27727101 -117.92844199 341.99982031 -121.125 339.4375 C-123.59492515 337.99804348 -126.14974921 336.80878619 -128.75 335.625 C-147.2013675 326.79640299 -158.96283657 314.71743894 -166.1796875 295.48046875 C-168.31862901 288.59519834 -168.27687458 281.96113857 -168.25 274.8125 C-168.25580078 273.25789062 -168.25580078 273.25789062 -168.26171875 271.671875 C-168.26042969 270.67414063 -168.25914062 269.67640625 -168.2578125 268.6484375 C-168.25668457 267.74399902 -168.25555664 266.83956055 -168.25439453 265.90771484 C-168.13316652 263.59340347 -167.74544074 261.6603115 -167.125 259.4375 C-166.5408663 255.71364764 -166.49436923 253.38509703 -168.6171875 250.1953125 C-169.87914351 248.6401219 -171.15144155 247.09327014 -172.43359375 245.5546875 C-176.06419935 241.01014192 -176.72311593 235.96040207 -176.65625 230.28515625 C-175.99943976 226.76446016 -174.52554912 224.44469269 -172.6875 221.375 C-167.76022363 212.89431779 -168.41858324 203.94405022 -168.27734375 194.39453125 C-167.98985754 176.90715586 -161.24335677 162.68605621 -149 150.28515625 C-142.63551159 144.363909 -135.48747112 139.57907673 -127.6875 135.75 C-123.01545019 133.35699888 -120.61364689 129.96231252 -118.125 125.4375 C-117.59326172 124.50744141 -117.59326172 124.50744141 -117.05078125 123.55859375 C-116.01548699 121.18659044 -115.88841875 119.57453446 -115.9375 117 C-115.94716797 115.88818359 -115.94716797 115.88818359 -115.95703125 114.75390625 C-116.07167413 112.42733056 -116.07167413 112.42733056 -116.6171875 110.15234375 C-119.42382011 95.14765405 -116.08221361 81.08949073 -108.09765625 68.22265625 C-98.35568895 54.46815589 -83.71298961 47.22326555 -68.0625 42.125 C-54.66880199 37.38322238 -46.76545987 26.87380751 -38.26171875 16.0703125 C-28.2942565 3.84292445 -15.28796837 -0.14608215 0 0 Z " fill="#030331" transform="translate(176.125,13.5625)"/>
<path d="M0 0 C165 0 330 0 500 0 C500 66.99 500 133.98 500 203 C499.67 203 499.34 203 499 203 C498.86464844 202.15179688 498.72929687 201.30359375 498.58984375 200.4296875 C495.31206093 182.56871524 486.91518038 169.68864542 472.6875 158.625 C466.55698103 154.4036998 459.90966674 151.68753436 453 149 C451.0415032 148.20873781 449.083149 147.41712251 447.125 146.625 C445.75073187 146.08147917 444.37604589 145.53900415 443 145 C443.62670139 139.48502778 444.88642195 134.2372755 446.28125 128.8671875 C450.14623144 113.4492724 447.91924171 98.84856766 440.01953125 85.078125 C429.64817984 69.27033988 415.15430831 61.11985364 397 57 C393.29081844 56.44306583 389.59498768 55.96597271 385.86328125 55.58984375 C382.71062032 54.940387 381.77422607 54.63902179 380 52 C379.20225115 49.8576356 378.4822526 47.68576301 377.8125 45.5 C374.21503662 34.73558391 368.26753187 26.25276051 358 21 C354.71895277 19.48528341 351.42495828 18.15212664 348 17 C346.48599609 16.46439453 346.48599609 16.46439453 344.94140625 15.91796875 C330.60988339 11.93741916 313.44490039 14.17289797 300 20 C299.38060547 20.2676416 298.76121094 20.5352832 298.12304688 20.81103516 C290.34770225 24.24239846 283.36778887 28.34256208 277 34 C276.02933594 34.83144531 276.02933594 34.83144531 275.0390625 35.6796875 C269.54952808 40.70597007 266.43617463 45.93763782 265.63171649 53.43005049 C265.4776326 57.67483891 265.45647504 61.90242046 265.47860718 66.14912415 C265.47256076 67.79414172 265.46478009 69.43915367 265.45542204 71.08415574 C265.4348875 75.58997972 265.43921896 80.09548496 265.44778323 84.60133493 C265.4527224 89.46651717 265.43468358 94.33162314 265.41970825 99.19677734 C265.39422264 108.72271615 265.39062583 118.24854219 265.39530878 127.77450935 C265.3988765 135.51877021 265.39537291 143.26299687 265.38685989 151.00725365 C265.38507433 152.66128122 265.38507433 152.66128122 265.38325269 154.3487235 C265.38082915 156.58892392 265.37840088 158.82912434 265.37596793 161.06932475 C265.35421991 182.07354691 265.35854041 203.07770483 265.37073763 224.0819306 C265.38107471 243.28861602 265.35856798 262.49509853 265.32054119 281.70174382 C265.28177752 301.43212242 265.26527365 321.16240504 265.27278769 340.89282197 C265.27661088 351.96633372 265.27164507 363.03967279 265.24335861 374.11315346 C265.21952012 383.54064365 265.21673307 392.96785488 265.24093895 402.39534894 C265.25270929 407.20303709 265.25493659 412.01021514 265.23093414 416.81786919 C265.20919087 421.22432121 265.21545093 425.62983806 265.24345751 430.03624656 C265.24874465 431.62500918 265.24403921 433.21384538 265.22798578 434.80253569 C265.12356212 445.91317063 266.66575873 455.01490688 274.29004514 463.5694626 C288.22614058 477.32004997 308.71672602 485.24078886 328.125 485.3125 C343.19217204 485.0947871 356.7053857 482.21813566 367.8125 471.44921875 C373.41165869 465.18016071 376.53434125 458.30882573 379.04296875 450.34765625 C380.07399127 447.81849488 380.90853829 446.72222092 383 445 C384.92260742 444.49511719 384.92260742 444.49511719 387.10546875 444.296875 C387.9164502 444.20760742 388.72743164 444.11833984 389.56298828 444.02636719 C390.42907715 443.93516602 391.29516602 443.84396484 392.1875 443.75 C409.99868969 441.46527648 426.44929422 433.31235564 437.62109375 418.91015625 C447.71916342 404.58147385 449.1726824 387.43110078 446.60302734 370.36328125 C445.86750972 366.82355759 444.91726211 363.4125689 443.875 359.94921875 C443 357 443 357 443 354 C444.24394531 353.56429688 445.48789062 353.12859375 446.76953125 352.6796875 C460.79189535 347.69677802 472.30486897 342.67626837 483 332 C483.57621094 331.43539063 484.15242188 330.87078125 484.74609375 330.2890625 C493.90237212 320.5382206 497.94821972 307.04207544 499 294 C499.33 294 499.66 294 500 294 C500 361.98 500 429.96 500 500 C335 500 170 500 0 500 C0 417.83 0 335.66 0 251 C2 254 2 254 3.875 257.375 C5.20254175 259.76058254 6.3926516 261.43627955 8.25 263.5 C10.58598238 266.83711769 10.36322799 269.00449215 10 273 C9.83201904 273.62487305 9.66403809 274.24974609 9.4909668 274.89355469 C8.47699145 279.24391733 8.81528895 283.80441116 8.8125 288.25 C8.80025391 289.26191406 8.78800781 290.27382813 8.77539062 291.31640625 C8.74339998 307.75959908 14.96260913 322.6372039 26.38671875 334.47265625 C32.81955359 340.5217427 39.72149744 344.93559874 47.63671875 348.78125 C48.26545898 349.08788574 48.89419922 349.39452148 49.54199219 349.71044922 C51.35318135 350.58431766 53.17443961 351.43722423 54.99609375 352.2890625 C57.99585616 353.99763979 59.43818998 354.95364264 61 358 C61.328125 360.8046875 61.328125 360.8046875 61.25 363.875 C61.23453125 364.88304687 61.2190625 365.89109375 61.203125 366.9296875 C61 370 61 370 60.49609375 372.87109375 C57.97579411 388.76684188 60.31798071 404.36361054 69 418 C79.25545181 432.06976021 94.22455873 439.44559779 110.84570312 443.45703125 C124.76878132 446.85829961 124.76878132 446.85829961 129.08349609 453.72412109 C130.68712567 456.48558624 132.21318428 459.28401771 133.71850586 462.10009766 C139.75485371 473.32476518 149.13894848 479.58117688 161 484 C173.60599474 486.95372737 188.79978359 486.03137586 201 482 C201.63631348 481.79600586 202.27262695 481.59201172 202.92822266 481.38183594 C211.91899866 478.4538136 219.60663101 475.03703151 227 469 C227.71671875 468.45601563 228.4334375 467.91203125 229.171875 467.3515625 C235.13313845 462.57806959 238.61549892 456.76900216 242 450 C242.09987252 447.84679413 242.13285885 445.69040604 242.13701439 443.53488922 C242.13966622 442.86022802 242.14231804 442.18556683 242.14505023 441.49046135 C242.15276995 439.20737224 242.15330342 436.92433667 242.15390015 434.64123535 C242.15791304 432.99671496 242.16235097 431.35219556 242.1671797 429.70767736 C242.17917085 425.17087339 242.18479955 420.63408006 242.18936086 416.09726334 C242.19530749 411.21089222 242.20691982 406.32453389 242.21765137 401.43817139 C242.24219921 389.62721482 242.25680719 377.81625402 242.26971143 366.00527978 C242.27342201 362.67017543 242.27739536 359.3350715 242.2814641 355.99996758 C242.30670218 335.29774515 242.32875947 314.59552208 242.34119225 293.89328766 C242.34412205 289.09552508 242.34708369 284.29776253 242.35009766 279.5 C242.35084371 278.3075082 242.35158976 277.1150164 242.35235842 275.88638848 C242.3650104 256.57124519 242.39822964 237.25619399 242.43989949 217.94109374 C242.48231452 198.11830398 242.5058869 178.29556137 242.51111281 158.47272635 C242.51452771 147.33993447 242.52629198 136.20728643 242.55921555 125.07453918 C242.58721143 115.59233803 242.59821745 106.11031017 242.58702008 96.62807089 C242.58183203 91.79034307 242.58472983 86.95297818 242.60948563 82.11530304 C242.63197489 77.68350923 242.6312408 73.25233912 242.61228175 68.82053441 C242.60948126 67.22014912 242.61508308 65.61972157 242.63009469 64.01940423 C242.72981073 52.69351458 241.24753418 44.56731061 233.5625 35.9375 C225.50858444 28.43167699 215.50487147 22.26852007 205 19 C203.91332031 18.63003906 202.82664063 18.26007812 201.70703125 17.87890625 C187.40516133 13.59575557 168.44926916 11.74761986 154.4296875 17.67578125 C146.52079294 21.98625594 140.57886409 26.95883453 135 34 C125.40294065 46.09229479 117.1564746 54.20089331 102.1875 58.875 C86.54697456 63.94164908 73.15220407 73.15723234 65.40234375 87.91796875 C59.80642059 100.21652969 58.11036185 112.71221512 61 126 C61.49237483 131.52974804 61.45818451 135.43025618 58 140 C57.401875 140.99 56.80375 141.98 56.1875 143 C52.41620183 148.17206607 48.33211513 150.89153425 42.75 153.8125 C28.00257963 161.64706707 16.75663324 173.72205714 11.6875 189.75 C9.9317797 195.76537927 8.95798921 201.2949586 8.9296875 207.5625 C8.85709656 220.37927556 8.38770059 230.21742917 1 241 C0.67 241 0.34 241 0 241 C0 161.47 0 81.94 0 0 Z " fill="#FEFEFE" transform="translate(0,0)"/>
<path d="M0 0 C10.0746812 7.76245928 14.32498809 18.59478518 17.14453125 30.65234375 C19.04912109 30.89017578 19.04912109 30.89017578 20.9921875 31.1328125 C41.54317644 33.85182323 59.4539555 38.96978787 73.14453125 55.65234375 C82.66767224 69.35286255 87.42964718 84.40163904 84.54296875 101.140625 C83.49887518 105.71248926 82.28933806 110.21950638 80.95703125 114.71484375 C79.96680721 117.78691844 79.96680721 117.78691844 80.14453125 121.65234375 C81.2325 122.00425781 82.32046875 122.35617188 83.44140625 122.71875 C97.38152694 127.34848069 108.61975241 133.16423661 119.14453125 143.65234375 C119.78132812 144.2659375 120.418125 144.87953125 121.07421875 145.51171875 C135.77993315 160.80566173 136.61166221 180.58048704 136.5078125 200.50390625 C136.50729243 202.49539184 136.50781579 204.48687795 136.50932312 206.47836304 C136.50923398 210.62855815 136.49892289 214.77855667 136.48071289 218.92871094 C136.45799837 224.21834323 136.4574935 229.50768986 136.46423054 234.79735756 C136.46758909 238.9017282 136.46090555 243.00603504 136.4511013 247.11039352 C136.44728372 249.05981486 136.4460866 251.00924334 136.44768715 252.95866776 C136.45061033 274.23994155 134.20912271 294.81880526 118.64453125 310.83984375 C109.28675668 320.00595658 92.75099363 330.65234375 79.14453125 330.65234375 C79.50546875 331.74546875 79.86640625 332.83859375 80.23828125 333.96484375 C83.15364957 343.4262937 84.63834228 352.2939249 84.64453125 362.21484375 C84.65033203 363.20033203 84.65613281 364.18582031 84.66210938 365.20117188 C84.39548451 380.99602903 77.68638797 393.44124699 66.56884766 404.32617188 C59.98806969 410.45349205 52.39807799 414.26724854 44.14453125 417.65234375 C43.42007813 418.00167969 42.695625 418.35101563 41.94921875 418.7109375 C36.94776393 420.3896988 31.59831779 420.66751443 26.36132812 421.15625 C20.77629202 421.82691292 20.77629202 421.82691292 16.609375 425.4921875 C15.44204296 428.01051183 14.46449596 430.29074042 13.76953125 432.96484375 C10.91122501 442.10835026 4.53524391 450.46491965 -3.72265625 455.34765625 C-20.96588748 464.24877561 -40.29584587 465.07411541 -58.73535156 459.38867188 C-73.45232076 454.27738916 -89.47432925 445.15092321 -96.91924953 431.01577663 C-99.90953734 424.13386349 -99.41172454 416.84499741 -99.37013245 409.48976135 C-99.37546208 407.84331911 -99.38253017 406.19688175 -99.3911795 404.5504536 C-99.40977847 400.04076081 -99.40351134 395.53139702 -99.39302647 391.02169073 C-99.38602669 386.15246254 -99.40203831 381.2833014 -99.4150238 376.41409302 C-99.4366559 366.88079803 -99.43653893 357.34762244 -99.42839826 347.81431098 C-99.42209616 340.06526661 -99.42323722 332.31625705 -99.42967033 324.56721306 C-99.43057199 323.46395056 -99.43147364 322.36068807 -99.43240262 321.22399337 C-99.43425384 318.98266148 -99.4361164 316.7413296 -99.43799018 314.49999773 C-99.45456589 293.48629479 -99.44585136 272.47265901 -99.4290046 251.45896011 C-99.41430771 232.2380127 -99.42893635 213.01722161 -99.45777477 193.79629434 C-99.48717366 174.05462742 -99.49813961 154.31303264 -99.48859257 134.57134479 C-99.48757002 132.33799328 -99.48657541 130.10464175 -99.48560905 127.87129021 C-99.48513266 126.77247222 -99.48465627 125.67365423 -99.48416545 124.54153873 C-99.48200198 116.80357471 -99.49180182 109.06567904 -99.50638008 101.32773018 C-99.52390341 91.89508176 -99.52378593 82.46263264 -99.50102843 73.02999205 C-99.48988637 68.21856047 -99.48672304 63.40748002 -99.50532913 58.59606361 C-99.52215374 54.18857579 -99.51575617 49.78174482 -99.49111234 45.3742994 C-99.48623515 43.78288303 -99.48972814 42.19141348 -99.50259978 40.60004169 C-99.5825116 29.94866725 -98.2315505 22.33816827 -91.63671875 13.76953125 C-67.92127286 -9.53982824 -29.14744649 -18.99659448 0 0 Z M-36.85546875 2.65234375 C-37.01782295 15.68275444 -37.142122 28.71292361 -37.21815395 41.74414062 C-37.25465008 47.79544865 -37.30413613 53.84606353 -37.38354492 59.89697266 C-37.45973109 65.73903187 -37.50148627 71.58042538 -37.51960945 77.42294312 C-37.53252072 79.64930702 -37.55773423 81.87563542 -37.59557915 84.10171509 C-37.64657326 87.22615617 -37.65338504 90.34786445 -37.65014648 93.47265625 C-37.67531342 94.38831863 -37.70048035 95.30398102 -37.72640991 96.24739075 C-37.65659114 102.49326624 -36.00082667 105.55176287 -31.59681797 109.96725464 C-31.02217273 110.52333405 -30.44752748 111.07941345 -29.85546875 111.65234375 C-26.65913259 115.58629595 -25.16244724 118.37868034 -25.48046875 123.56640625 C-26.30900663 128.1751482 -27.86916112 132.02302229 -31.55078125 135.04296875 C-36.68745988 137.99603905 -42.04517925 138.73112714 -47.85546875 137.65234375 C-52.19533776 135.81562016 -54.39435768 133.42582039 -56.79296875 129.40234375 C-58.45108013 123.55018594 -58.99986366 118.94113357 -56.23046875 113.40234375 C-53.85546875 110.65234375 -53.85546875 110.65234375 -50.74960327 108.60688782 C-48.77317588 106.96844956 -47.96183121 106.06202125 -47.31129837 103.55635643 C-47.11600808 100.89654111 -47.11345876 98.29608134 -47.17431641 95.62963867 C-47.17344025 94.62429077 -47.17256409 93.61894287 -47.17166138 92.58312988 C-47.17583607 89.26556252 -47.2224852 85.9500259 -47.26953125 82.6328125 C-47.28072374 80.33068445 -47.28926367 78.0285421 -47.29525757 75.72639465 C-47.3181513 69.67123868 -47.37708088 63.61694815 -47.44348145 57.56213379 C-47.50489126 51.38203641 -47.53226991 45.201799 -47.5625 39.02148438 C-47.62682223 26.89805754 -47.72920961 14.77527265 -47.85546875 2.65234375 C-49.77604652 3.11863711 -51.69571394 3.58868108 -53.61499023 4.06030273 C-54.68410141 4.32165512 -55.75321259 4.58300751 -56.85472107 4.85227966 C-67.71509052 7.74788852 -77.62264743 14.04976689 -84.85546875 22.65234375 C-87.29575279 27.53411436 -88.22996048 31.05339897 -88.22461224 36.58883572 C-88.22807377 37.25368999 -88.2315353 37.91854426 -88.23510173 38.60354564 C-88.24301954 40.82328418 -88.22960378 43.04236505 -88.2162323 45.2620697 C-88.21754107 46.87265998 -88.22016881 48.48324964 -88.2239998 50.09383589 C-88.23070266 54.51331471 -88.21871483 58.93257511 -88.20366561 63.3520261 C-88.19070666 68.12018198 -88.19509461 72.88832561 -88.19737244 77.65649414 C-88.19894526 85.91558181 -88.1895351 94.17459836 -88.17265892 102.43366814 C-88.14827472 114.37487617 -88.14046424 126.31604983 -88.13669495 138.25728006 C-88.13012956 157.63125633 -88.110166 177.0051947 -88.08178711 196.37915039 C-88.05424882 215.19880992 -88.0330141 234.01845915 -88.02026367 252.83813477 C-88.0194755 253.99823698 -88.01868733 255.1583392 -88.01787528 256.35359602 C-88.01396016 262.17350524 -88.01016903 267.99341452 -88.00643957 273.81332386 C-87.97534093 322.09302335 -87.92250273 370.3726817 -87.85546875 418.65234375 C-83.74211271 417.31637208 -79.99073982 415.82330218 -76.15234375 413.82421875 C-75.08886719 413.27121094 -74.02539062 412.71820313 -72.9296875 412.1484375 C-71.83269531 411.57222656 -70.73570312 410.99601562 -69.60546875 410.40234375 C-68.52394531 409.84160156 -67.44242187 409.28085937 -66.328125 408.703125 C-52.1351452 402.47023343 -52.1351452 402.47023343 -42.96875 391.03125 C-42.70449219 390.10183594 -42.44023437 389.17242187 -42.16796875 388.21484375 C-40.42727933 383.26413771 -38.69304286 380.77779802 -33.99609375 378.39453125 C-28.7724313 376.58340741 -24.63219832 377.07116799 -19.60546875 379.27734375 C-15.75121679 381.47001859 -13.66723138 383.50038772 -11.85546875 387.65234375 C-11.10886336 392.80081009 -11.05736654 397.82948917 -13.35546875 402.58984375 C-17.33120396 407.46011938 -21.31369122 409.3938579 -27.54296875 410.02734375 C-30.85546875 409.65234375 -30.85546875 409.65234375 -33.29296875 408.65234375 C-37.45345345 407.02873996 -41.65919763 406.92165153 -45.88485718 408.32751465 C-48.01042844 409.29261381 -50.06137044 410.34333599 -52.1171875 411.44921875 C-53.24771294 412.03428192 -53.24771294 412.03428192 -54.40107727 412.63116455 C-55.98401721 413.45417064 -57.56294162 414.28494205 -59.13793945 415.12304688 C-61.53846823 416.39994981 -63.95026935 417.6529953 -66.36523438 418.90234375 C-67.90826424 419.70827338 -69.45060649 420.51552119 -70.9921875 421.32421875 C-72.06420662 421.88384308 -72.06420662 421.88384308 -73.15788269 422.45477295 C-77.058783 424.5371246 -80.48480393 426.74997477 -83.85546875 429.65234375 C-83.52541042 432.56462317 -82.95890273 433.55647811 -80.7734375 435.58203125 C-63.50592544 447.88420722 -46.05448446 453.74796134 -24.85546875 451.65234375 C-13.89271974 449.68919554 -5.58209057 445.07816733 0.83203125 435.91015625 C4.83161221 429.02992472 6.56751988 421.57168983 7.75 413.76953125 C8.14453125 411.65234375 8.14453125 411.65234375 9.14453125 410.65234375 C10.8186875 410.53088093 12.49751572 410.47266581 14.17578125 410.44140625 C15.21476562 410.41304688 16.25375 410.3846875 17.32421875 410.35546875 C19.50635545 410.30412436 21.68866654 410.25964654 23.87109375 410.22265625 C33.15655622 409.9488834 40.24447905 407.82244879 48.51953125 403.65234375 C49.51726562 403.15734375 50.515 402.66234375 51.54296875 402.15234375 C53.85584187 400.81879529 55.48661313 399.72756099 57.14453125 397.65234375 C57.14453125 396.99234375 57.14453125 396.33234375 57.14453125 395.65234375 C55.27369575 394.27667936 55.27369575 394.27667936 52.80859375 392.921875 C51.85984375 392.37402344 50.91109375 391.82617188 49.93359375 391.26171875 C48.36738281 390.37226562 48.36738281 390.37226562 46.76953125 389.46484375 C45.691875 388.84480469 44.61421875 388.22476562 43.50390625 387.5859375 C41.21297544 386.26852001 38.92076856 384.95370867 36.62597656 383.64306641 C32.20134039 381.11520912 27.78897025 378.56617994 23.37597656 376.01806641 C21.20657794 374.76553209 19.03664846 373.5139168 16.86621094 372.26318359 C7.60750158 366.92735214 -1.62716673 361.55114481 -10.8515625 356.15625 C-15.06554101 353.69281126 -19.28805826 351.24473074 -23.515625 348.8046875 C-25.154104 347.85638062 -25.154104 347.85638062 -26.82568359 346.88891602 C-28.91656571 345.67909843 -31.00924446 344.47237873 -33.10400391 343.26928711 C-34.04679199 342.72280518 -34.98958008 342.17632324 -35.9609375 341.61328125 C-36.78746826 341.13681152 -37.61399902 340.6603418 -38.46557617 340.16943359 C-39.25424072 339.66879395 -40.04290527 339.1681543 -40.85546875 338.65234375 C-42.22687012 337.90791016 -42.22687012 337.90791016 -43.62597656 337.1484375 C-47.20105089 333.14585757 -46.50460275 328.9359037 -46.421875 323.75390625 C-46.42750961 322.68618988 -46.43314423 321.61847351 -46.43894958 320.5184021 C-46.45542317 317.10427109 -46.43984159 313.69143018 -46.41796875 310.27734375 C-46.40136769 306.8705174 -46.39229689 303.46454839 -46.40769958 300.05770874 C-46.41696729 297.93858571 -46.40785665 295.81928181 -46.37806702 293.7003479 C-46.40596758 286.15934711 -48.07207916 282.43573334 -53.48046875 277.02734375 C-57.0150633 273.4927492 -58.15276125 270.76616548 -58.23046875 265.77734375 C-58.11005272 260.96070238 -57.21428954 258.26953537 -53.85546875 254.65234375 C-49.01724221 250.97529158 -45.28927096 249.99848523 -39.21875 250.265625 C-34.39806425 251.05446449 -31.71121997 253.70407888 -28.54296875 257.21484375 C-25.67463974 261.35798566 -25.51993042 264.70315333 -25.85546875 269.65234375 C-27.60711832 274.59817782 -30.58057157 277.62269323 -34.33203125 281.13671875 C-37.80274682 284.58963578 -37.05366453 288.79691864 -37.09375 293.38671875 C-37.10182175 294.25750061 -37.10989349 295.12828247 -37.11820984 296.02545166 C-37.13205382 297.87143969 -37.14277457 299.71745335 -37.15063477 301.56347656 C-37.16781676 304.3774521 -37.21169543 307.19024327 -37.25585938 310.00390625 C-37.26598915 311.79816845 -37.27450436 313.59244064 -37.28125 315.38671875 C-37.29875809 316.2244281 -37.31626617 317.06213745 -37.33430481 317.92523193 C-37.31113192 324.2137393 -35.60878562 327.63012266 -31.31811523 332.33984375 C-26.29897175 336.64814893 -20.76946289 339.6141227 -14.91796875 342.65234375 C-6.5039195 347.11502256 1.80958129 351.69896503 10.01953125 356.52734375 C10.99647949 357.10186279 11.97342773 357.67638184 12.97998047 358.26831055 C14.99019881 359.4509557 17.00028841 360.63381971 19.01025391 361.81689453 C25.65472902 365.70793394 32.33759002 369.53313017 39.01757812 373.36279297 C43.70949263 376.06014284 48.38300803 378.77050206 52.9765625 381.6328125 C53.67386475 382.06553467 54.37116699 382.49825684 55.08959961 382.9440918 C56.86256844 384.0540757 58.62518149 385.18055597 60.38671875 386.30859375 C62.97750813 387.85354972 62.97750813 387.85354972 65.4296875 387.5 C69.53960553 385.46844599 70.9964957 380.08825041 72.49633789 376.01831055 C73.70970634 371.58940146 73.62901637 367.15459989 73.58203125 362.58984375 C73.5759082 361.57994385 73.56978516 360.57004395 73.56347656 359.52954102 C73.32607618 348.06766773 71.79120138 336.44868398 63.4206543 327.88964844 C58.75101913 323.59026974 53.8804023 320.62477034 48.20703125 317.83984375 C39.58680688 313.45814346 31.25191144 308.72208546 22.96728516 303.73925781 C21.31177332 302.75207074 19.64102174 301.79055355 17.96875 300.83203125 C16.63263672 300.06246094 16.63263672 300.06246094 15.26953125 299.27734375 C14.52960938 298.85710937 13.7896875 298.436875 13.02734375 298.00390625 C10.80218484 296.40659301 9.59974538 294.97920538 8.14453125 292.65234375 C7.76599121 290.15492249 7.76599121 290.15492249 7.75976562 287.32055664 C7.74965454 286.25587662 7.73954346 285.19119659 7.72912598 284.09425354 C7.73365784 282.37697304 7.73365784 282.37697304 7.73828125 280.625 C7.72744507 279.44393173 7.71660889 278.26286346 7.70544434 277.04600525 C7.67114199 273.26889569 7.65558074 269.49208871 7.64453125 265.71484375 C7.62997887 260.74710398 7.59632105 255.78004157 7.55078125 250.8125 C7.55380249 249.66967056 7.55682373 248.52684113 7.55993652 247.34938049 C7.54982544 246.28154831 7.53971436 245.21371613 7.52929688 244.11352539 C7.52724243 243.17738907 7.52518799 242.24125275 7.52307129 241.27674866 C6.89921954 236.95160623 5.10209345 234.3705154 1.64453125 231.77734375 C-2.43747301 228.30764013 -3.59852443 224.41883596 -4.35546875 219.21484375 C-3.50102299 213.12691771 -0.580808 209.18597864 3.95703125 205.15234375 C9.33573889 202.62118722 13.34825988 203.10432875 18.83203125 204.77734375 C23.52531027 207.43391678 26.40042047 210.42001141 28.14453125 215.65234375 C28.56532594 221.12267472 27.7832401 224.82987585 25.14453125 229.65234375 C22.58203125 231.90234375 22.58203125 231.90234375 20.14453125 233.65234375 C17.98319899 236.89434214 17.88327095 237.84397716 17.83813477 241.59521484 C17.82214737 242.59990814 17.80615997 243.60460144 17.78968811 244.63973999 C17.78164406 246.26633041 17.78164406 246.26633041 17.7734375 247.92578125 C17.76440903 249.04167633 17.75538055 250.15757141 17.74607849 251.30728149 C17.73156255 253.66934521 17.72268593 256.03144925 17.71899414 258.39355469 C17.70709971 262.00654907 17.65792582 265.61783504 17.60742188 269.23046875 C17.59795767 271.52473124 17.59072263 273.81900423 17.5859375 276.11328125 C17.56640518 277.1936264 17.54687286 278.27397156 17.52674866 279.38705444 C17.52525539 285.46098605 17.52525539 285.46098605 20.37573242 290.68237305 C22.88463734 292.46743201 25.33439229 294.17714701 28.00390625 295.7109375 C28.94290771 296.25540527 29.88190918 296.79987305 30.84936523 297.36083984 C32.35672241 298.21669678 32.35672241 298.21669678 33.89453125 299.08984375 C34.94133057 299.68877441 35.98812988 300.28770508 37.06665039 300.90478516 C39.2843349 302.17160962 41.50386607 303.43520605 43.72509766 304.69580078 C47.15824578 306.66019098 50.56459635 308.66554289 53.96875 310.6796875 C56.17269125 311.96307425 58.37710418 313.24565142 60.58203125 314.52734375 C62.11585449 315.44664673 62.11585449 315.44664673 63.68066406 316.38452148 C71.11996092 320.65088828 76.15948064 321.91903694 84.48046875 319.8046875 C100.83973801 313.26518526 113.63925514 304.00451269 121.14453125 287.65234375 C126.55079817 273.30494308 126.96236336 259.20392013 122.1171875 244.703125 C118.01522834 231.83714064 119.01703762 217.5672768 123.3503418 204.9765625 C125.12167961 199.54882878 125.6096533 194.54034459 125.58203125 188.83984375 C125.57945312 188.0804248 125.576875 187.32100586 125.57421875 186.53857422 C125.46968628 182.69265046 124.99384293 179.99737464 123.14453125 176.65234375 C105.74246664 186.21184225 105.74246664 186.21184225 88.70703125 196.40234375 C88.05863281 196.80759277 87.41023437 197.2128418 86.7421875 197.63037109 C84.3217533 199.16769183 82.17867142 200.61820358 80.14453125 202.65234375 C79.83942147 204.64320317 79.83942147 204.64320317 79.88574219 206.94677734 C79.87628571 208.27858536 79.87628571 208.27858536 79.86663818 209.63729858 C79.87068665 210.59874786 79.87473511 211.56019714 79.87890625 212.55078125 C79.87603607 214.0305394 79.87603607 214.0305394 79.87310791 215.54019165 C79.87174515 217.62998713 79.87544791 219.71979104 79.88378906 221.80957031 C79.89446452 225.00735564 79.88390848 228.20457625 79.87109375 231.40234375 C79.87241577 233.43099082 79.87497906 235.45963755 79.87890625 237.48828125 C79.87283356 238.92438248 79.87283356 238.92438248 79.86663818 240.38949585 C79.8729425 241.28367218 79.87924683 242.17784851 79.88574219 243.09912109 C79.88733337 243.8836264 79.88892456 244.66813171 79.89056396 245.47640991 C80.3842661 249.7063373 81.88175654 251.43336483 85.14453125 254.15234375 C88.39199682 256.85856506 89.81867089 258.60245475 90.48046875 262.765625 C90.58452762 268.6241391 89.66954017 271.92141073 86.14453125 276.65234375 C81.98687817 280.41402987 78.08101237 281.47947271 72.609375 281.80859375 C68.64435203 281.55724523 66.05943719 280.31983062 63.14453125 277.65234375 C59.17101651 272.65997907 58.50664161 268.57036839 58.7578125 262.23046875 C59.31156554 258.53878179 60.72748117 256.4613479 63.14453125 253.65234375 C64.0416447 252.57007025 64.93747563 251.48673239 65.83203125 250.40234375 C66.97671875 249.04109375 66.97671875 249.04109375 68.14453125 247.65234375 C69.34240667 245.2565929 69.269021 243.77249294 69.27050781 241.09838867 C69.27621796 239.68132881 69.27621796 239.68132881 69.28204346 238.23564148 C69.28358429 236.69974113 69.28358429 236.69974113 69.28515625 235.1328125 C69.3034838 232.97459882 69.32305406 230.8163954 69.34375 228.65820312 C69.37273299 225.24778969 69.39453151 221.83803488 69.39501953 218.42749023 C69.39835179 215.14116655 69.43289129 211.85637117 69.47265625 208.5703125 C69.46558655 207.55245163 69.45851685 206.53459076 69.45123291 205.48588562 C69.57274927 198.42261675 69.57274927 198.42261675 72.37182617 194.65185547 C74.9276829 192.80872202 77.38426975 191.19263262 80.1796875 189.7421875 C81.62782837 188.97841797 81.62782837 188.97841797 83.10522461 188.19921875 C84.6406189 187.40257812 84.6406189 187.40257812 86.20703125 186.58984375 C94.40211668 182.22948945 102.56222976 177.82890293 110.58203125 173.15234375 C111.85929077 172.43292603 111.85929077 172.43292603 113.16235352 171.69897461 C117.58217123 169.18145365 117.58217123 169.18145365 120.33203125 165.078125 C119.80138224 158.21285344 113.15145027 152.08021731 108.375 147.5546875 C101.57859709 141.75810568 94.11901164 137.98919514 85.89453125 134.65234375 C85.1380127 134.3370874 84.38149414 134.02183105 83.60205078 133.69702148 C78.69791585 131.8061344 75.3334771 131.10168728 70.14453125 132.65234375 C66.03643143 134.6712123 62.13090034 136.98645157 58.20703125 139.33984375 C57.0494928 140.02261249 55.89127731 140.70423459 54.73242188 141.38476562 C52.35349236 142.78382471 49.97824748 144.18883476 47.60595703 145.59912109 C42.47122668 148.64951067 37.30603776 151.64757571 32.14453125 154.65234375 C30.17707579 155.80207042 28.20962794 156.95181013 26.2421875 158.1015625 C20.8297975 161.25901056 15.40218585 164.38951305 9.97094727 167.5144043 C5.64648229 170.00328483 1.32579391 172.49864732 -2.99316406 174.99707031 C-4.79622176 176.03978024 -6.6001389 177.08100681 -8.40527344 178.12011719 C-10.5396558 179.35145704 -12.66746108 180.59326728 -14.79296875 181.83984375 C-15.91574219 182.49339844 -17.03851563 183.14695313 -18.1953125 183.8203125 C-22.69040239 186.91604988 -24.0792837 189.88726769 -25.60546875 195.02734375 C-27.22719744 199.54760991 -28.76954248 202.78553584 -32.6640625 205.6875 C-37.26878798 207.7148925 -41.9724589 207.43335367 -46.85546875 206.65234375 C-51.28937255 204.67292241 -53.93123451 202.08195622 -56.15625 197.70703125 C-57.75740094 193.00197317 -57.95531964 188.15625961 -55.9375 183.5625 C-53.30414066 179.53150011 -50.49772539 177.17000458 -45.85546875 175.65234375 C-42.1997667 175.31479635 -38.57787035 175.16860543 -35.01953125 176.16796875 C-27.00842868 177.96106752 -22.07535219 175.10902961 -15.29296875 171.21484375 C-14.32657471 170.6729541 -13.36018066 170.13106445 -12.36450195 169.57275391 C0.9397793 163.1933188 0.9397793 163.1933188 11.14453125 153.65234375 C11.24956587 152.1063926 11.2932313 150.55605707 11.30566406 149.0065918 C11.31527161 148.04186447 11.32487915 147.07713715 11.33477783 146.08317566 C11.33902771 145.03736832 11.34327759 143.99156097 11.34765625 142.9140625 C11.35335632 141.84114456 11.3590564 140.76822662 11.3649292 139.66279602 C11.37438808 137.38889556 11.38091669 135.11498133 11.38476562 132.84106445 C11.39446247 129.364502 11.42547447 125.88853277 11.45703125 122.41210938 C11.46356204 120.2044306 11.46881222 117.99674759 11.47265625 115.7890625 C11.49117645 114.22946053 11.49117645 114.22946053 11.5100708 112.63835144 C11.54736418 105.63086957 11.54736418 105.63086957 8.14453125 99.65234375 C7.29890625 98.99234375 6.45328125 98.33234375 5.58203125 97.65234375 C2.15062485 94.83683081 1.36681247 92.6939113 0.890625 88.3203125 C0.69141397 84.03406227 0.88370988 81.21571791 2.70703125 77.27734375 C6.90380842 72.75773757 10.57317335 70.45235003 16.70703125 70.21484375 C21.49373446 70.4667755 25.10290112 71.62731224 28.5859375 75.08203125 C32.43992289 79.49599742 33.46852001 82.82790579 33.3515625 88.67578125 C32.78136638 94.11954045 28.21038228 97.94380487 24.66796875 101.78515625 C22.31712738 104.66644388 22.01997216 107.17064005 22.03100586 110.7565918 C22.03108139 111.57721603 22.03115692 112.39784027 22.03123474 113.24333191 C22.03639603 114.124673 22.04155731 115.0060141 22.046875 115.9140625 C22.04828995 116.8198555 22.0497049 117.7256485 22.05116272 118.65888977 C22.05676124 121.55257466 22.06931344 124.44618224 22.08203125 127.33984375 C22.08704644 129.30143117 22.09160932 131.26301981 22.09570312 133.22460938 C22.10673018 138.03388396 22.12399378 142.84310075 22.14453125 147.65234375 C26.11231464 146.77865909 29.29347372 145.00748035 32.76953125 142.96484375 C33.70212769 142.424646 33.70212769 142.424646 34.65356445 141.87353516 C39.03681861 139.32666949 43.38275451 136.71999333 47.70703125 134.07421875 C50.36325058 132.52475747 53.08790255 131.16432185 55.83203125 129.77734375 C63.03460202 125.86533926 67.93254551 120.73938813 70.5390625 112.90234375 C70.83876953 111.78859375 70.83876953 111.78859375 71.14453125 110.65234375 C71.49257813 109.45351562 71.840625 108.2546875 72.19921875 107.01953125 C73.36981314 102.26677508 73.48902821 97.6543298 73.45703125 92.77734375 C73.4521167 91.89328857 73.44720215 91.0092334 73.44213867 90.09838867 C73.32994004 83.86417263 72.79494734 78.37166268 70.14453125 72.65234375 C69.81582031 71.91371094 69.48710937 71.17507812 69.1484375 70.4140625 C62.89646336 57.88848109 52.3397994 49.08215726 39.33203125 44.21484375 C32.15290023 42.13142 24.98806221 42.45399136 17.57104492 42.88696289 C15.02111612 42.99071691 12.66777279 43.03546451 10.14453125 42.65234375 C6.72311825 39.25719879 6.290177 34.50642074 5.33203125 29.90234375 C3.03227863 19.94164615 -1.29464946 12.53902871 -9.85546875 6.65234375 C-15.93006101 3.09648486 -20.83711307 1.50979516 -27.91796875 1.52734375 C-28.96082031 1.52476563 -30.00367188 1.5221875 -31.078125 1.51953125 C-33.94227503 1.53097218 -33.94227503 1.53097218 -36.85546875 2.65234375 Z " fill="#040433" transform="translate(363.85546875,23.34765625)"/>
<path d="M0 0 C1.15628906 -0.04253906 1.15628906 -0.04253906 2.3359375 -0.0859375 C5.47350085 0.54585853 6.51403093 2.006165 8.625 4.375 C9.94313049 6.56147766 9.94313049 6.56147766 11.10766602 8.9621582 C11.77470299 10.32187492 11.77470299 10.32187492 12.45521545 11.70906067 C12.92503342 12.68807846 13.39485138 13.66709625 13.87890625 14.67578125 C14.63034157 16.21687813 14.63034157 16.21687813 15.3969574 17.78910828 C17.00156236 21.08486732 18.59459763 24.38607164 20.1875 27.6875 C21.2316816 29.83564645 22.27659675 31.9834365 23.32226562 34.13085938 C29.84245987 47.53924836 36.28284714 60.98586515 42.69908142 74.44425964 C43.33000148 75.75986432 43.97248551 77.06997102 44.625 78.375 C45.24532142 82.88562292 45.44851061 86.25927594 42.6875 90 C41.676875 90.78375 40.66625 91.5675 39.625 92.375 C38.97015625 92.92929687 38.3153125 93.48359375 37.640625 94.0546875 C26.67118436 103.11809058 12.92807044 108.79987654 -1.375 109.375 C-2.23609375 109.41496094 -3.0971875 109.45492187 -3.984375 109.49609375 C-16.29792246 109.79175803 -27.96736747 107.7131235 -37.25 99.0625 C-41.48372367 94.44844182 -44.07081801 89.93881967 -44.8125 83.6875 C-44.375 80.375 -44.375 80.375 -42.81640625 77.984375 C-41.10181886 74.88046069 -41.34879467 73.74801362 -41.875 70.3125 C-42.14793003 60.21408891 -35.40900343 51.70788227 -30.375 43.375 C-29.55024337 41.9692867 -28.72841584 40.56184886 -27.91015625 39.15234375 C-26.33302886 36.44065357 -24.74127256 33.73851796 -23.13671875 31.04296875 C-20.96858445 27.39312709 -18.83388213 23.7248301 -16.70703125 20.05078125 C-16.07321533 18.95733398 -15.43939941 17.86388672 -14.78637695 16.73730469 C-13.52872768 14.56609666 -12.2732942 12.3936034 -11.02026367 10.21972656 C-10.44638916 9.23069336 -9.87251465 8.24166016 -9.28125 7.22265625 C-8.76884766 6.33586182 -8.25644531 5.44906738 -7.72851562 4.53540039 C-5.45604936 0.90822615 -4.20220394 0.06980405 0 0 Z " fill="#FDFDFD" transform="translate(184.375,365.625)"/>
<path d="M0 0 C1.43472656 0.00676758 1.43472656 0.00676758 2.8984375 0.01367188 C5.22402758 0.02529983 7.5494776 0.04163898 9.875 0.0625 C10.2771875 1.0215625 10.2771875 1.0215625 10.6875 2 C11.76167752 4.39381686 11.76167752 4.39381686 14.875 5.0625 C16.875 8.0625 16.875 8.0625 16.69189453 11.37939453 C15.86177691 15.12211852 14.72759351 17.69305738 12.8046875 20.9921875 C11.84175781 22.6625708 11.84175781 22.6625708 10.859375 24.36669922 C10.15693892 25.55737284 9.45379737 26.74763052 8.75 27.9375 C8.02801929 29.17297392 7.30667387 30.40881929 6.5859375 31.64501953 C5.09887124 34.19055611 3.60407462 36.73135034 2.10449219 39.26953125 C0.2985408 42.33163479 -1.47676962 45.40998329 -3.23922729 48.49728394 C-4.85379978 51.31881874 -6.49110085 54.12712639 -8.125 56.9375 C-8.71039551 57.96987793 -9.29579102 59.00225586 -9.89892578 60.06591797 C-13.54316018 66.24410658 -17.06468905 70.24534053 -23.125 74.0625 C-24.25202709 74.8518304 -25.37837279 75.64213497 -26.50390625 76.43359375 C-27.55449219 77.11550781 -28.60507813 77.79742187 -29.6875 78.5 C-30.74066406 79.19996094 -31.79382813 79.89992188 -32.87890625 80.62109375 C-38.66645641 83.19101675 -43.7565294 81.07405432 -49.4375 78.9375 C-61.63867389 74.04023984 -71.65971859 66.3155655 -77 54.0625 C-81.36348197 42.45593181 -83.1751865 30.11522891 -79.125 18.0625 C-76.99680864 15.72668021 -75.71600237 14.62480292 -73.125 13.0625 C-71.62446264 12.04245671 -70.12449342 11.0215773 -68.625 10 C-67.1258293 9.01956409 -65.62576282 8.0404971 -64.125 7.0625 C-63.25842773 6.38735352 -62.39185547 5.71220703 -61.49902344 5.01660156 C-57.53127488 2.71863778 -54.26400371 2.3889273 -49.796875 2.26953125 C-49.00782776 2.23317062 -48.21878052 2.19681 -47.40582275 2.15934753 C-44.89592587 2.04714421 -42.38594318 1.9602436 -39.875 1.875 C-37.38472789 1.77379495 -34.8947192 1.66736757 -32.4046936 1.56028748 C-30.79865765 1.49177038 -29.19251458 1.42571699 -27.58627319 1.36219788 C-22.82671613 1.16753136 -18.12686536 0.79538693 -13.39257812 0.26098633 C-8.9360466 -0.12910413 -4.46970638 -0.0408049 0 0 Z " fill="#FDFDFD" transform="translate(151.125,350.9375)"/>
<path d="M0 0 C6.90829597 4.8214149 10.95756591 12.57105117 13.875 20.30859375 C14.11116212 25.0318361 12.88420479 27.41471604 10.3125 31.18359375 C6.9027908 36.28341818 7.30296597 40.78299629 8.2578125 46.66796875 C8.37898438 47.43625 8.50015625 48.20453125 8.625 48.99609375 C8.83382812 50.02283203 8.83382812 50.02283203 9.046875 51.0703125 C8.48190769 58.42772772 -0.05719526 64.42007658 -4.9375 69.18359375 C-10.36965817 74.50798684 -15.72714752 79.80819929 -20.64672852 85.61547852 C-26.33417924 92.12951167 -26.33417924 92.12951167 -30.625 92.55859375 C-34.54432987 90.59892881 -36.91623199 88.09046689 -39.125 84.30859375 C-40.0647489 81.2422579 -40.75151986 78.17657097 -41.4296875 75.04296875 C-42.88629708 69.31472882 -47.05266358 66.3816558 -51.5390625 62.93359375 C-56.20459811 58.15314347 -55.45831044 51.80172684 -55.4375 45.55859375 C-55.45361328 44.60726562 -55.46972656 43.6559375 -55.48632812 42.67578125 C-55.49409401 31.3375964 -51.70693709 21.80892648 -44.296875 13.1796875 C-33.92020028 3.06044937 -13.96903844 -7.8848674 0 0 Z " fill="#FDFDFD" transform="translate(126.125,69.69140625)"/>
<path d="M0 0 C3.63367709 0.41927043 4.36759582 1.25572121 6.78222656 3.81933594 C8.42040715 5.55561117 10.12468619 7.20712097 11.84375 8.86328125 C13.14597141 10.13787978 14.44805199 11.4126222 15.75 12.6875 C16.40097656 13.31333984 17.05195313 13.93917969 17.72265625 14.58398438 C28.05599157 24.76075401 28.05599157 24.76075401 28.39819336 31.13574219 C28.16066046 34.57848298 27.72356856 37.95666366 27.25 41.375 C27.01447578 43.54059027 26.79772284 45.7076591 26.58047485 47.87515259 C26.26726523 50.94915585 25.92189574 54.01919117 25.57543945 57.08959961 C25.30946444 59.46460579 25.0541913 61.84062918 24.79882812 64.21679688 C24.62825988 65.73965692 24.45705958 67.26244633 24.28515625 68.78515625 C24.17410301 69.84138939 24.17410301 69.84138939 24.06080627 70.91896057 C23.65223339 74.42633607 23.21785955 77.39593659 21.25 80.375 C19.4453125 81.3515625 19.4453125 81.3515625 17.375 82 C15.09272469 82.74573448 13.24841564 83.37596022 11.1875 84.625 C7.4374438 86.07663466 3.66904961 84.99827393 0.11108398 83.43554688 C-2.29372232 82.17773644 -4.64907102 80.85585241 -7 79.5 C-8.29369507 78.76885986 -8.29369507 78.76885986 -9.61352539 78.02294922 C-11.41925367 76.99958836 -13.22203807 75.97101708 -15.02197266 74.9375 C-17.70717836 73.39952644 -20.40454882 71.88517042 -23.10546875 70.375 C-24.80005151 69.41767909 -26.49408321 68.45938192 -28.1875 67.5 C-29.36650879 66.84088623 -29.36650879 66.84088623 -30.56933594 66.16845703 C-40.8090657 60.28943207 -40.8090657 60.28943207 -42.41186523 55.32495117 C-43.46284652 49.31815439 -42.04484481 45.7644049 -38.75 40.8125 C-38.31083252 40.11286133 -37.87166504 39.41322266 -37.41918945 38.69238281 C-36.43417632 37.12671444 -35.43918551 35.56729353 -34.43603516 34.01318359 C-32.5555036 31.07066637 -30.73480245 28.09552856 -28.91796875 25.11328125 C-27.59208074 22.94994756 -26.26526257 20.78718367 -24.9375 18.625 C-24.30392578 17.58915771 -23.67035156 16.55331543 -23.01757812 15.48608398 C-15.80478587 3.90239293 -15.80478587 3.90239293 -10.75 1.375 C-8.41666667 1.375 -6.08333333 1.375 -3.75 1.375 C-2.75 0.375 -2.75 0.375 0 0 Z " fill="#FDFDFD" transform="translate(160.75,239.625)"/>
<path d="M0 0 C0 40.59 0 81.18 0 123 C-1.65 121.35 -3.3 119.7 -5 118 C-5.56203125 117.46117187 -6.1240625 116.92234375 -6.703125 116.3671875 C-10.13302063 113.0585508 -13.20143068 109.59003742 -16.1875 105.875 C-19.63761565 101.58439621 -23.23773933 97.51335506 -27 93.5 C-31.45194927 88.74682779 -35.63440084 83.86089068 -39.69140625 78.76171875 C-41.40128099 76.71623408 -43.11448673 74.804024 -44.96484375 72.89453125 C-45.72075806 72.10767944 -45.72075806 72.10767944 -46.49194336 71.30493164 C-47.9202156 69.83226434 -49.36588433 68.37652742 -50.8125 66.921875 C-53.38535831 63.48527139 -53.84025696 61.25315854 -54 57 C-53.67 56.01 -53.34 55.02 -53 54 C-52.97447231 51.58337836 -52.95434949 49.16669773 -52.9375 46.75 C-52.76289021 43.19006402 -52.60229709 39.99709548 -50.71875 36.87890625 C-48.59810093 35.01403723 -46.37081971 33.53764593 -44 32 C-42.85247856 31.14722334 -41.7124216 30.2843525 -40.578125 29.4140625 C-36.42169879 26.2263108 -32.2147938 23.11000559 -28 20 C-27.18869629 19.40106934 -26.37739258 18.80213867 -25.54150391 18.18505859 C-22.24526277 15.75292404 -18.94830741 13.32178995 -15.6472168 10.89624023 C-14.89738525 10.34524658 -14.14755371 9.79425293 -13.375 9.2265625 C-12.65054688 8.69450195 -11.92609375 8.16244141 -11.1796875 7.61425781 C-8.27581954 5.46367818 -5.40105993 3.27536455 -2.53125 1.07958984 C-1 0 -1 0 0 0 Z " fill="#FAFAFB" transform="translate(231,62)"/>
<path d="M0 0 C4.37658359 2.79531795 8.38075843 6.03604965 12.28125 9.45703125 C12.89097656 9.92882812 13.50070313 10.400625 14.12890625 10.88671875 C15.28125 12.45703125 15.28125 12.45703125 15.30859375 14.86328125 C13.89362227 18.43568073 11.94191407 19.69819502 8.84375 21.95703125 C8.27027832 22.38081055 7.69680664 22.80458984 7.10595703 23.24121094 C5.17489131 24.66151821 3.22918034 26.05995967 1.28125 27.45703125 C-0.11890386 28.47208505 -1.51863259 29.48772548 -2.91796875 30.50390625 C-5.91417446 32.67512792 -8.91646686 34.83763253 -11.921875 36.99609375 C-17.00634366 40.65463644 -22.05312787 44.36339642 -27.09375 48.08203125 C-27.89635254 48.6740332 -28.69895508 49.26603516 -29.52587891 49.87597656 C-33.70049753 52.94291239 -33.70049753 52.94291239 -37.79174805 56.11865234 C-40.57710414 58.05319208 -42.36928721 57.77870835 -45.71875 57.45703125 C-59.3352606 54.62762645 -59.3352606 54.62762645 -63.73046875 50.625 C-65.00001649 48.59452459 -65.84566333 46.68784169 -66.71875 44.45703125 C-67.04464111 43.88750732 -67.37053223 43.3179834 -67.70629883 42.73120117 C-70.68495003 37.44666648 -71.20655434 33.39552818 -70.90625 27.39453125 C-70.85323052 25.86213905 -70.80498569 24.32957357 -70.76171875 22.796875 C-70.73843506 22.06380127 -70.71515137 21.33072754 -70.69116211 20.57543945 C-70.66795612 18.1672969 -70.66795612 18.1672969 -71.359375 14.68359375 C-71.87691226 10.03700921 -70.26281498 8.22827811 -67.59375 4.6015625 C-50.60990329 -14.82371218 -20.59338036 -11.10773084 0 0 Z " fill="#FCFCFD" transform="translate(212.71875,33.54296875)"/>
<path d="M0 0 C3.15189647 1.74650073 6.26368085 3.55742115 9.375 5.375 C11.36684514 6.52012696 13.35905078 7.66462703 15.3515625 8.80859375 C21.38459886 12.28848493 27.38662303 15.81889219 33.375 19.375 C34.14118652 19.8292334 34.90737305 20.2834668 35.69677734 20.75146484 C46.18414934 26.99329869 46.18414934 26.99329869 47.375 29.375 C47.63418588 36.63220458 44.94319935 41.70103462 41.0625 47.625 C40.33256836 48.78902344 40.33256836 48.78902344 39.58789062 49.9765625 C38.2191887 52.13553781 36.80676662 54.25752344 35.375 56.375 C34.78847656 57.27992188 34.20195313 58.18484375 33.59765625 59.1171875 C30.26748926 62.50002849 26.39028078 64.25208728 22.125 66.25 C21.30386719 66.66507812 20.48273438 67.08015625 19.63671875 67.5078125 C13.97524381 70.19948046 10.4940009 70.90315839 4.375 69.375 C-7.9629181 64.29937522 -18.10055669 54.54483847 -23.4765625 42.37890625 C-26.7142971 33.91013786 -27.91213447 26.16015076 -28.0625 17.125 C-28.08489746 16.28517578 -28.10729492 15.44535156 -28.13037109 14.58007812 C-28.10851524 8.7595187 -26.98591759 4.20131001 -23.625 -0.625 C-15.9054463 -6.50656473 -7.90092221 -4.23200533 0 0 Z " fill="#FCFCFD" transform="translate(46.625,269.625)"/>
<path d="M0 0 C4.99023011 3.71068393 8.57522694 8.0588701 12.4453125 12.90625 C15.15184363 16.24195897 18.06135891 19.36910268 21 22.5 C25.47972629 27.28260087 29.68455816 32.20820421 33.7890625 37.3203125 C36.89250637 41.08173034 40.20488015 44.6367624 43.5078125 48.22265625 C46.80941431 51.90202754 49.90876796 55.72703588 52.9921875 59.58984375 C54.96048736 62.03878237 54.96048736 62.03878237 57.2578125 64.19140625 C59 66 59 66 59 68 C54.33047253 70.11583297 49.52170092 71.09984881 44.53515625 72.1640625 C43.16876259 72.45946426 43.16876259 72.45946426 41.77476501 72.76083374 C39.85301067 73.17482981 37.93076153 73.58653491 36.00805664 73.99609375 C33.07459607 74.62241737 30.14373171 75.2599829 27.21289062 75.8984375 C25.34129278 76.30016438 23.46955246 76.7012282 21.59765625 77.1015625 C20.7256105 77.2921524 19.85356476 77.48274231 18.95509338 77.67910767 C14.58555643 78.60006385 10.4919434 79.38034352 6 79 C3.8046875 77.4609375 3.8046875 77.4609375 1.875 75.375 C1.23304688 74.70210938 0.59109375 74.02921875 -0.0703125 73.3359375 C-4.60926388 67.84141741 -6.59936058 64.23785989 -6.3125 57.0625 C-6.29340576 56.2463623 -6.27431152 55.43022461 -6.25463867 54.58935547 C-6.20713197 52.62171427 -6.15138769 50.6542639 -6.08984375 48.68701172 C-6.00158587 45.06508085 -5.97012464 41.44692242 -5.95271301 37.82414246 C-5.93217011 34.31122404 -5.88891932 30.7987624 -5.84237671 27.28610229 C-5.82252638 25.51804428 -5.81028733 23.74988376 -5.80581665 21.98171997 C-5.79642249 19.45824715 -5.75519572 16.93705589 -5.70703125 14.4140625 C-5.71093872 13.6553334 -5.71484619 12.89660431 -5.71887207 12.11488342 C-5.56029518 6.32369295 -3.92227744 3.95152198 0 0 Z " fill="#FCFCFC" transform="translate(166,130)"/>
<path d="M0 0 C1.20994726 61.53758672 1.20994726 61.53758672 1 85 C0.32710937 84.32582031 -0.34578125 83.65164063 -1.0390625 82.95703125 C-3.1936953 80.80164031 -5.35710743 78.6553495 -7.5234375 76.51171875 C-19.44358454 64.68990755 -19.44358454 64.68990755 -24.3984375 58.8203125 C-27.05067828 55.80581445 -29.95136422 53.04120924 -32.80859375 50.22265625 C-35.42307905 47.57088774 -37.83729547 44.78468593 -40.2578125 41.95703125 C-42.0724244 39.91864434 -43.97966854 38.0256963 -45.9375 36.125 C-48.92998823 33.15008019 -51.76882532 30.09268022 -54.5 26.875 C-55.1703125 26.08867187 -55.840625 25.30234375 -56.53125 24.4921875 C-58.39600172 21.32806091 -58.65161507 19.61263063 -58 16 C-53.95432932 11.04647729 -47.63805536 10.41526309 -41.6875 9.125 C-39.44759144 8.61601245 -37.20801651 8.10555484 -34.96875 7.59375 C-33.82148438 7.33464844 -32.67421875 7.07554687 -31.4921875 6.80859375 C-24.838134 5.26789009 -18.22883772 3.54378181 -11.61791992 1.82861328 C-10.20410034 1.46872314 -10.20410034 1.46872314 -8.76171875 1.1015625 C-7.5236145 0.78179443 -7.5236145 0.78179443 -6.26049805 0.45556641 C-4 0 -4 0 0 0 Z " fill="#FBFBFC" transform="translate(230,209)"/>
<path d="M0 0 C1.61064523 2.59492842 1.53948037 3.74698678 1.125 6.8125 C-0.36307898 9.80248036 -2.21115323 12.53690968 -4.0625 15.3125 C-5.16431306 17.00159238 -6.2645134 18.69173761 -7.36328125 20.3828125 C-7.93900879 21.26485352 -8.51473633 22.14689453 -9.10791016 23.05566406 C-10.90627175 25.86128703 -12.63902299 28.69829734 -14.35546875 31.5546875 C-14.92305908 32.49505859 -15.49064941 33.43542969 -16.07543945 34.40429688 C-17.16873456 36.22140785 -18.25485327 38.04286145 -19.33276367 39.86914062 C-25.99617951 50.85290961 -25.99617951 50.85290961 -31.86450195 52.3046875 C-38.83474829 52.85070435 -44.08117674 49.58279272 -49.9375 46.1875 C-50.96375488 45.61080566 -51.99000977 45.03411133 -53.04736328 44.43994141 C-56.33481942 42.58372472 -59.60481236 40.69894436 -62.875 38.8125 C-65.15193977 37.52012134 -67.42928256 36.22845246 -69.70703125 34.9375 C-71.88917109 33.6895091 -74.07019743 32.43956882 -76.25 31.1875 C-77.28390869 30.59630371 -78.31781738 30.00510742 -79.38305664 29.39599609 C-80.33688232 28.83992676 -81.29070801 28.28385742 -82.2734375 27.7109375 C-83.11567871 27.22286621 -83.95791992 26.73479492 -84.82568359 26.23193359 C-86.875 24.8125 -86.875 24.8125 -88.875 21.8125 C-88.70581055 19.72387695 -88.70581055 19.72387695 -87.875 17.8125 C-81.44544145 14.72356617 -74.51726056 13.53724472 -67.5625 12.125 C-65.08026173 11.6077067 -62.59851374 11.0880568 -60.1171875 10.56640625 C-59.46492691 10.42947357 -58.81266632 10.29254089 -58.14064026 10.15145874 C-49.80007917 8.39022116 -41.49463769 6.47407166 -33.1875 4.5625 C-32.43769867 4.39005768 -31.68789734 4.21761536 -30.91537476 4.03994751 C-29.45271716 3.70351076 -27.99007532 3.3670055 -26.52745056 3.03042603 C-23.3101778 2.29019752 -20.09263694 1.55114409 -16.875 0.8125 C-15.91948242 0.59247314 -14.96396484 0.37244629 -13.97949219 0.14575195 C-3.52073099 -2.22979629 -3.52073099 -2.22979629 0 0 Z " fill="#FCFCFD" transform="translate(133.875,233.1875)"/>
<path d="M0 0 C1.61537596 0.77538046 3.22988659 1.55316499 4.828125 2.36328125 C7.90916249 3.26653505 10.68134995 2.88967313 13.875 2.6875 C19.52117499 2.51256509 22.16113162 3.19284993 26.375 7 C27.6176583 8.30140215 28.839618 9.62473245 30 11 C28.5851245 14.39671117 27.0186418 15.97977531 24.0390625 18.09765625 C18.31751195 22.39397062 13.3920728 27.35174969 8.375 32.4375 C7.47265625 33.34048828 6.5703125 34.24347656 5.640625 35.17382812 C1.14714615 39.69678315 -3.20918483 44.28156137 -7.36865234 49.11303711 C-10.16243461 52.34457604 -13.05132596 55.47231594 -16 58.5625 C-16.5775 59.20251953 -17.155 59.84253906 -17.75 60.50195312 C-19.4307044 62.24455847 -20.95101574 63.70920258 -23 65 C-26.6015625 64.98828125 -26.6015625 64.98828125 -30 64 C-30.93585937 63.78601563 -31.87171875 63.57203125 -32.8359375 63.3515625 C-33.67382812 63.11179688 -34.51171875 62.87203125 -35.375 62.625 C-36.22835937 62.39039063 -37.08171875 62.15578125 -37.9609375 61.9140625 C-38.63382813 61.61242187 -39.30671875 61.31078125 -40 61 C-43.49702505 50.50892484 -41.40205167 36.84293559 -37 27 C-29.95061541 13.4723202 -16.54201026 -1.37563495 0 0 Z " fill="#FCFCFC" transform="translate(60,161)"/>
<path d="M0 0 C3.42638648 1.70778885 6.15254931 4.00561954 8.9765625 6.546875 C9.57879639 7.07869385 10.18103027 7.6105127 10.80151367 8.15844727 C12.06240083 9.27644373 13.31909808 10.39918167 14.57177734 11.52636719 C16.44867606 13.20936942 18.34530503 14.86751129 20.24609375 16.5234375 C21.42818286 17.57167805 22.60921366 18.62111355 23.7890625 19.671875 C24.3459375 20.15503174 24.9028125 20.63818848 25.4765625 21.13598633 C28.6284665 23.99562467 30.24326968 25.929062 30.4765625 30.234375 C30.0480138 36.44833108 30.0480138 36.44833108 28.30761719 38.84228516 C25.79873484 40.74970478 23.50135148 41.19333832 20.4296875 41.8828125 C18.59096069 42.30361084 18.59096069 42.30361084 16.71508789 42.73291016 C15.38564585 43.02536722 14.05613574 43.31751501 12.7265625 43.609375 C11.35974892 43.91759029 9.99313238 44.22668057 8.62670898 44.53662109 C4.57986925 45.45073288 0.5286864 46.34397744 -3.5234375 47.234375 C-4.61060059 47.47478516 -5.69776367 47.71519531 -6.81787109 47.96289062 C-11.5251135 49.00230126 -16.23510217 50.02738886 -20.94921875 51.03515625 C-24.93063657 51.88664046 -28.90581696 52.76281019 -32.87890625 53.65234375 C-33.92763916 53.88550293 -34.97637207 54.11866211 -36.05688477 54.35888672 C-38.06478072 54.80572008 -40.07183688 55.25635022 -42.07788086 55.71142578 C-42.98030518 55.91106934 -43.88272949 56.11071289 -44.8125 56.31640625 C-45.99900146 56.58287964 -45.99900146 56.58287964 -47.20947266 56.85473633 C-49.68481718 57.26085162 -52.01939748 57.29951219 -54.5234375 57.234375 C-53.22520275 53.41875105 -51.77376892 51.16346621 -48.8359375 48.421875 C-46.21686475 45.90551099 -43.73674788 43.38797792 -41.3984375 40.609375 C-37.9706297 36.61289862 -34.2631015 32.93505371 -30.5234375 29.234375 C-25.10848216 23.88972848 -25.10848216 23.88972848 -20.0234375 18.234375 C-16.61242461 14.25485996 -13.03213124 10.44748072 -9.3984375 6.671875 C-8.79966797 6.02669922 -8.20089844 5.38152344 -7.58398438 4.71679688 C-3.27694823 0.30436052 -3.27694823 0.30436052 0 0 Z " fill="#FBFBFC" transform="translate(98.5234375,180.765625)"/>
<path d="M0 0 C2.01736939 3.3537681 2.24394033 5.89372493 2.22705078 9.77832031 C2.22689972 10.9392218 2.22674866 12.10012329 2.22659302 13.29620361 C2.21627045 14.54423767 2.20594788 15.79227173 2.1953125 17.078125 C2.1924826 18.35983582 2.18965271 19.64154663 2.18673706 20.96209717 C2.17911788 24.36189639 2.15948434 27.76152346 2.1373291 31.16125488 C2.11683358 34.63352124 2.10772744 38.10581553 2.09765625 41.578125 C2.07623666 48.38548717 2.04212156 55.19273531 2 62 C-6.36478482 66.94596228 -6.36478482 66.94596228 -11 66 C-17.73215238 62.3081745 -23.29551061 56.1354074 -28.859375 50.91015625 C-31.9996861 47.97155995 -35.26196035 45.20043535 -38.609375 42.5 C-40.32940518 40.64468655 -40.70228237 39.50475528 -41 37 C-40.04760742 35.34716797 -40.04760742 35.34716797 -38.41796875 33.6171875 C-37.76876465 32.92206055 -37.11956055 32.22693359 -36.45068359 31.51074219 C-35.64195801 30.68219727 -34.83323242 29.85365234 -34 29 C-33.5166217 28.5011731 -33.03324341 28.00234619 -32.53521729 27.48840332 C-29.10470311 23.95303666 -25.63954643 20.45377804 -22.15600586 16.97070312 C-20.30097597 15.11346223 -18.45412582 13.24832796 -16.60742188 11.3828125 C-15.4223641 10.19482441 -14.23683407 9.00730717 -13.05078125 7.8203125 C-12.50279373 7.26513947 -11.95480621 6.70996643 -11.39021301 6.13796997 C-5.2155452 0 -5.2155452 0 0 0 Z " fill="#F9F9FA" transform="translate(148,132)"/>
<path d="M0 0 C2.93665057 0.5713231 4.93532045 1.59093126 7.53027344 3.07397461 C8.49296143 3.61675049 9.45564941 4.15952637 10.44750977 4.71875 C11.48415771 5.307771 12.52080566 5.89679199 13.58886719 6.50366211 C15.83217085 7.73684159 18.0770157 8.96722083 20.32324219 10.19506836 C22.07234424 11.15971871 23.82144254 12.12437664 25.56982422 13.09033203 C26.75543529 13.74433251 27.94197058 14.39666013 29.12939453 15.04736328 C42.87532578 22.58260208 42.87532578 22.58260208 47.58886719 26.50366211 C47.58886719 27.49366211 47.58886719 28.48366211 47.58886719 29.50366211 C35.80081506 31.23112098 24.0848043 32.02087714 12.18725586 32.5090332 C9.26284104 32.62921799 6.33897113 32.75901756 3.41503906 32.89038086 C-4.10022721 33.22138661 -11.62007664 33.54372189 -19.14160156 33.68334961 C-19.94364014 33.69865723 -20.74567871 33.71396484 -21.57202148 33.72973633 C-23.41113281 33.50366211 -23.41113281 33.50366211 -25.41113281 31.50366211 C-25.3681883 24.85585231 -22.26961901 20.32747644 -18.72363281 14.87866211 C-18.20607422 14.04592773 -17.68851562 13.21319336 -17.15527344 12.35522461 C-12.89460726 5.69096966 -8.6670487 -0.71654454 0 0 Z " fill="#F9F9FA" transform="translate(113.4111328125,309.496337890625)"/>
<path d="M0 0 C4.60526611 3.80029779 8.81825652 7.75224101 12.8125 12.1875 C13.32095459 12.74703369 13.82940918 13.30656738 14.35327148 13.88305664 C15.39503595 15.02956505 16.4354934 16.17726251 17.47460938 17.32617188 C18.93162484 18.92497118 20.40666452 20.50435123 21.890625 22.078125 C23.21320313 23.49351562 23.21320313 23.49351562 24.5625 24.9375 C25.34753906 25.77152344 26.13257813 26.60554688 26.94140625 27.46484375 C31.69524844 33.3191959 32.43904667 37.90329554 32.25 45.1875 C32.24484375 45.99380859 32.2396875 46.80011719 32.234375 47.63085938 C32.18859344 51.07306064 32.09897142 53.70308575 31 57 C27.36509991 59.74923916 22.98454069 59.36750938 18.625 59.375 C17.8825 59.39949219 17.14 59.42398438 16.375 59.44921875 C9.86497439 59.48372419 6.4506197 57.26211049 1.6640625 52.84375 C0.99117187 52.0703125 0.31828125 51.296875 -0.375 50.5 C-1.06335938 49.7471875 -1.75171875 48.994375 -2.4609375 48.21875 C-6.90882954 38.91655954 -3.29110106 25.71270771 -2 15.75 C-1.80661542 14.21492879 -1.61390266 12.67977279 -1.421875 11.14453125 C-0.9556396 7.42868021 -0.48038642 3.71405137 0 0 Z " fill="#FAFAFB" transform="translate(199,277)"/>
<path d="M0 0 C0 24.75 0 49.5 0 75 C-3.62698654 71.37301346 -5.47945422 68.46599763 -7.5390625 63.9453125 C-7.8619223 63.25519073 -8.1847821 62.56506897 -8.51742554 61.85403442 C-9.56214134 59.61501758 -10.59404991 57.37038447 -11.625 55.125 C-12.3393021 53.58275683 -13.05414857 52.04076567 -13.76953125 50.49902344 C-15.19140439 47.43093664 -16.60778991 44.36039806 -18.02050781 41.28808594 C-19.74758006 37.53718864 -21.50502801 33.80189023 -23.2734375 30.0703125 C-24.18283087 28.13046102 -25.09173071 26.19037805 -26 24.25 C-26.41459473 23.38391113 -26.82918945 22.51782227 -27.25634766 21.62548828 C-29.26405583 17.27793688 -30.67123208 13.89561655 -30 9 C-22.86560728 -3.99478674 -16.97901895 0 0 0 Z " fill="#FBFBFC" transform="translate(231,347)"/>
<path d="M0 0 C0.33 0 0.66 0 1 0 C1 19.8 1 39.6 1 60 C0.67 60 0.34 60 0 60 C-1.02319925 56.40202142 -2.0140858 52.79585716 -3 49.1875 C-3.42925781 47.68026367 -3.42925781 47.68026367 -3.8671875 46.14257812 C-6.72867408 35.54826472 -6.69835081 26.73739086 -3.5625 16.25 C-1.99866002 10.82693586 -0.65293608 5.61374925 0 0 Z " fill="#F5F5F7" transform="translate(499,218)"/>
</svg>
